<svg width="449" height="94" viewBox="0 0 449 94" fill="none" xmlns="http://www.w3.org/2000/svg">
<rect x="1.5" y="1.5" width="446" height="91" rx="1.5" fill="#FEF1C8" stroke="#292524" stroke-width="3"/>
<path d="M83.5716 72H67.7971V23.2727H84.0712C88.8456 23.2727 92.9459 24.2482 96.372 26.1992C99.7982 28.1343 102.423 30.9181 104.247 34.5504C106.087 38.1669 107.007 42.5051 107.007 47.565C107.007 52.6407 106.079 57.0027 104.224 60.6509C102.384 64.2991 99.7189 67.1067 96.2293 69.0735C92.7397 71.0245 88.5205 72 83.5716 72ZM75.149 65.576H83.1671C86.8788 65.576 89.9639 64.8781 92.4224 63.4822C94.881 62.0705 96.721 60.0323 97.9423 57.3675C99.1637 54.6869 99.7744 51.4194 99.7744 47.565C99.7744 43.7423 99.1637 40.4986 97.9423 37.8338C96.7368 35.169 94.9365 33.1467 92.5414 31.7667C90.1463 30.3867 87.1722 29.6967 83.6192 29.6967H75.149V65.576ZM121.752 72L108.237 23.2727H115.97L125.463 61.0078H125.915L135.789 23.2727H143.45L153.324 61.0316H153.776L163.246 23.2727H171.002L157.464 72H150.065L139.81 35.5021H139.43L129.175 72H121.752ZM174.356 72V23.2727H204.906V29.6016H181.708V44.4482H203.311V50.7532H181.708V65.6712H205.191V72H174.356ZM211.376 72V23.2727H218.728V65.6712H240.807V72H211.376ZM245.844 72V23.2727H253.196V65.6712H275.276V72H245.844ZM287.665 23.2727V72H280.313V23.2727H287.665ZM334.35 23.2727V72H327.593L302.825 36.2635H302.373V72H295.021V23.2727H301.826L326.618 59.0568H327.07V23.2727H334.35ZM374.702 38.6665C374.242 37.2231 373.623 35.9304 372.846 34.7884C372.084 33.6304 371.172 32.647 370.11 31.8381C369.047 31.0133 367.833 30.3867 366.469 29.9585C365.121 29.5302 363.638 29.3161 362.02 29.3161C359.276 29.3161 356.802 30.0219 354.597 31.4336C352.392 32.8453 350.647 34.9152 349.362 37.6435C348.094 40.3558 347.459 43.6789 347.459 47.6126C347.459 51.5621 348.101 54.901 349.386 57.6293C350.671 60.3575 352.432 62.4274 354.668 63.8391C356.905 65.2508 359.451 65.9567 362.306 65.9567C364.955 65.9567 367.262 65.4174 369.229 64.3388C371.212 63.2602 372.743 61.7375 373.821 59.7706C374.916 57.7879 375.463 55.4562 375.463 52.7756L377.366 53.1325H363.424V47.0653H382.577V52.609C382.577 56.7013 381.705 60.2544 379.96 63.2681C378.231 66.266 375.836 68.5818 372.774 70.2156C369.729 71.8493 366.239 72.6662 362.306 72.6662C357.896 72.6662 354.026 71.651 350.695 69.6207C347.38 67.5904 344.794 64.7115 342.938 60.984C341.083 57.2406 340.155 52.7994 340.155 47.6602C340.155 43.774 340.694 40.2844 341.773 37.1914C342.851 34.0984 344.366 31.4732 346.317 29.3161C348.284 27.143 350.592 25.4854 353.241 24.3434C355.905 23.1855 358.816 22.6065 361.973 22.6065C364.606 22.6065 367.056 22.9951 369.324 23.7724C371.609 24.5496 373.639 25.652 375.415 27.0795C377.208 28.5071 378.691 30.2043 379.865 32.1712C381.038 34.1222 381.831 36.2873 382.244 38.6665H374.702Z" fill="#292524"/>
</svg>
